<mxfile host="app.diagrams.net" modified="2023-09-05T08:20:03.894Z" agent="Mozilla/5.0 (Windows NT 10.0; Win64; x64) AppleWebKit/537.36 (KHTML, like Gecko) Chrome/116.0.0.0 Safari/537.36" etag="GyfRzG8m7xeu3m61Nk1f" version="21.7.2" type="device" pages="6">
  <diagram name="Use Case Diagram" id="W4e2YINw8BMRa1BYdkKT">
    <mxGraphModel dx="2261" dy="1965" grid="1" gridSize="10" guides="1" tooltips="1" connect="1" arrows="1" fold="1" page="1" pageScale="1" pageWidth="827" pageHeight="1169" math="0" shadow="0">
      <root>
        <mxCell id="0" />
        <mxCell id="1" parent="0" />
        <mxCell id="izFiQ_gFmzqzUYnW1M_b-1" value="Church Administrator" style="shape=umlActor;verticalLabelPosition=bottom;verticalAlign=top;html=1;outlineConnect=0;" parent="1" vertex="1">
          <mxGeometry x="120" y="180" width="30" height="60" as="geometry" />
        </mxCell>
        <mxCell id="izFiQ_gFmzqzUYnW1M_b-3" value="Web-based Church CMS App Builder" style="text;html=1;strokeColor=none;fillColor=none;align=center;verticalAlign=middle;whiteSpace=wrap;rounded=0;" parent="1" vertex="1">
          <mxGeometry x="247" y="-60" width="240" height="30" as="geometry" />
        </mxCell>
        <mxCell id="izFiQ_gFmzqzUYnW1M_b-4" value="IT Support" style="shape=umlActor;verticalLabelPosition=bottom;verticalAlign=top;html=1;outlineConnect=0;" parent="1" vertex="1">
          <mxGeometry x="120" y="350" width="30" height="60" as="geometry" />
        </mxCell>
        <mxCell id="izFiQ_gFmzqzUYnW1M_b-5" value="Super Administrator" style="shape=umlActor;verticalLabelPosition=bottom;verticalAlign=top;html=1;outlineConnect=0;" parent="1" vertex="1">
          <mxGeometry x="120" y="525" width="30" height="60" as="geometry" />
        </mxCell>
        <mxCell id="izFiQ_gFmzqzUYnW1M_b-6" value="Church Staff" style="shape=umlActor;verticalLabelPosition=bottom;verticalAlign=top;html=1;outlineConnect=0;" parent="1" vertex="1">
          <mxGeometry x="-90" y="350" width="30" height="60" as="geometry" />
        </mxCell>
        <mxCell id="izFiQ_gFmzqzUYnW1M_b-7" value="Master Administrator&lt;br&gt;(Owner)" style="shape=umlActor;verticalLabelPosition=bottom;verticalAlign=top;html=1;outlineConnect=0;" parent="1" vertex="1">
          <mxGeometry x="120" y="680" width="30" height="60" as="geometry" />
        </mxCell>
        <mxCell id="izFiQ_gFmzqzUYnW1M_b-19" value="Create Account" style="ellipse;whiteSpace=wrap;html=1;" parent="1" vertex="1">
          <mxGeometry x="280" y="625" width="113" height="55" as="geometry" />
        </mxCell>
        <mxCell id="izFiQ_gFmzqzUYnW1M_b-23" value="" style="endArrow=none;html=1;rounded=0;entryX=0;entryY=0.5;entryDx=0;entryDy=0;" parent="1" target="izFiQ_gFmzqzUYnW1M_b-19" edge="1">
          <mxGeometry width="50" height="50" relative="1" as="geometry">
            <mxPoint x="160" y="540" as="sourcePoint" />
            <mxPoint x="311" y="688" as="targetPoint" />
          </mxGeometry>
        </mxCell>
        <mxCell id="izFiQ_gFmzqzUYnW1M_b-25" value="Login System" style="ellipse;whiteSpace=wrap;html=1;" parent="1" vertex="1">
          <mxGeometry x="280" y="430" width="113" height="55" as="geometry" />
        </mxCell>
        <mxCell id="izFiQ_gFmzqzUYnW1M_b-26" value="" style="endArrow=none;html=1;rounded=0;entryX=0;entryY=0.5;entryDx=0;entryDy=0;" parent="1" target="izFiQ_gFmzqzUYnW1M_b-25" edge="1">
          <mxGeometry width="50" height="50" relative="1" as="geometry">
            <mxPoint x="160" y="700" as="sourcePoint" />
            <mxPoint x="191" y="533" as="targetPoint" />
          </mxGeometry>
        </mxCell>
        <mxCell id="izFiQ_gFmzqzUYnW1M_b-27" value="" style="endArrow=none;html=1;rounded=0;entryX=0;entryY=0.5;entryDx=0;entryDy=0;" parent="1" target="izFiQ_gFmzqzUYnW1M_b-25" edge="1">
          <mxGeometry width="50" height="50" relative="1" as="geometry">
            <mxPoint x="160" y="540" as="sourcePoint" />
            <mxPoint x="270" y="508" as="targetPoint" />
          </mxGeometry>
        </mxCell>
        <mxCell id="izFiQ_gFmzqzUYnW1M_b-28" value="" style="endArrow=none;html=1;rounded=0;entryX=0;entryY=0.5;entryDx=0;entryDy=0;" parent="1" target="izFiQ_gFmzqzUYnW1M_b-25" edge="1">
          <mxGeometry width="50" height="50" relative="1" as="geometry">
            <mxPoint x="160" y="380" as="sourcePoint" />
            <mxPoint x="270" y="508" as="targetPoint" />
          </mxGeometry>
        </mxCell>
        <mxCell id="izFiQ_gFmzqzUYnW1M_b-29" value="" style="endArrow=none;html=1;rounded=0;entryX=0;entryY=0.5;entryDx=0;entryDy=0;" parent="1" target="izFiQ_gFmzqzUYnW1M_b-25" edge="1">
          <mxGeometry width="50" height="50" relative="1" as="geometry">
            <mxPoint x="160" y="200" as="sourcePoint" />
            <mxPoint x="270" y="508" as="targetPoint" />
          </mxGeometry>
        </mxCell>
        <mxCell id="izFiQ_gFmzqzUYnW1M_b-30" value="Approve Application" style="ellipse;whiteSpace=wrap;html=1;" parent="1" vertex="1">
          <mxGeometry x="280" y="720" width="113" height="55" as="geometry" />
        </mxCell>
        <mxCell id="izFiQ_gFmzqzUYnW1M_b-31" value="" style="endArrow=none;html=1;rounded=0;entryX=0;entryY=0.5;entryDx=0;entryDy=0;" parent="1" target="izFiQ_gFmzqzUYnW1M_b-30" edge="1">
          <mxGeometry width="50" height="50" relative="1" as="geometry">
            <mxPoint x="160" y="700" as="sourcePoint" />
            <mxPoint x="250" y="663" as="targetPoint" />
          </mxGeometry>
        </mxCell>
        <mxCell id="izFiQ_gFmzqzUYnW1M_b-32" value="Register Account" style="ellipse;whiteSpace=wrap;html=1;" parent="1" vertex="1">
          <mxGeometry x="280" y="527.5" width="113" height="55" as="geometry" />
        </mxCell>
        <mxCell id="izFiQ_gFmzqzUYnW1M_b-33" value="" style="endArrow=none;html=1;rounded=0;entryX=0;entryY=0.5;entryDx=0;entryDy=0;" parent="1" target="izFiQ_gFmzqzUYnW1M_b-32" edge="1">
          <mxGeometry width="50" height="50" relative="1" as="geometry">
            <mxPoint x="160" y="540" as="sourcePoint" />
            <mxPoint x="250" y="468" as="targetPoint" />
          </mxGeometry>
        </mxCell>
        <mxCell id="izFiQ_gFmzqzUYnW1M_b-34" value="Submit Application" style="ellipse;whiteSpace=wrap;html=1;" parent="1" vertex="1">
          <mxGeometry x="530" y="527.5" width="113" height="55" as="geometry" />
        </mxCell>
        <mxCell id="izFiQ_gFmzqzUYnW1M_b-38" value="" style="endArrow=block;endSize=16;endFill=0;html=1;rounded=0;" parent="1" edge="1">
          <mxGeometry width="160" relative="1" as="geometry">
            <mxPoint x="110" y="200" as="sourcePoint" />
            <mxPoint x="-30" y="360" as="targetPoint" />
          </mxGeometry>
        </mxCell>
        <mxCell id="izFiQ_gFmzqzUYnW1M_b-39" value="" style="endArrow=block;endSize=16;endFill=0;html=1;rounded=0;" parent="1" edge="1">
          <mxGeometry width="160" relative="1" as="geometry">
            <mxPoint x="110" y="380" as="sourcePoint" />
            <mxPoint x="-30" y="380" as="targetPoint" />
          </mxGeometry>
        </mxCell>
        <mxCell id="izFiQ_gFmzqzUYnW1M_b-40" value="" style="endArrow=block;endSize=16;endFill=0;html=1;rounded=0;" parent="1" edge="1">
          <mxGeometry width="160" relative="1" as="geometry">
            <mxPoint x="110" y="550" as="sourcePoint" />
            <mxPoint x="-30" y="400" as="targetPoint" />
          </mxGeometry>
        </mxCell>
        <mxCell id="izFiQ_gFmzqzUYnW1M_b-41" value="&amp;lt;&amp;lt;include&amp;gt;&amp;gt;" style="html=1;verticalAlign=bottom;endArrow=open;dashed=1;endSize=8;elbow=vertical;rounded=0;entryX=0;entryY=0.5;entryDx=0;entryDy=0;exitX=1;exitY=0.5;exitDx=0;exitDy=0;" parent="1" source="izFiQ_gFmzqzUYnW1M_b-32" target="izFiQ_gFmzqzUYnW1M_b-34" edge="1">
          <mxGeometry relative="1" as="geometry">
            <mxPoint x="473" y="625" as="sourcePoint" />
            <mxPoint x="393" y="625" as="targetPoint" />
          </mxGeometry>
        </mxCell>
      </root>
    </mxGraphModel>
  </diagram>
  <diagram id="hhA7E-FgV2B3KxhhFpzp" name="Class Diagram (Database)">
    <mxGraphModel dx="1434" dy="796" grid="1" gridSize="10" guides="1" tooltips="1" connect="1" arrows="1" fold="1" page="1" pageScale="1" pageWidth="827" pageHeight="1169" math="0" shadow="0">
      <root>
        <mxCell id="0" />
        <mxCell id="1" parent="0" />
      </root>
    </mxGraphModel>
  </diagram>
  <diagram id="PRdrxqNXHjIS-64q9Zpl" name="System Architecture Diagram">
    <mxGraphModel dx="1434" dy="796" grid="1" gridSize="10" guides="1" tooltips="1" connect="1" arrows="1" fold="1" page="1" pageScale="1" pageWidth="827" pageHeight="1169" math="0" shadow="0">
      <root>
        <mxCell id="0" />
        <mxCell id="1" parent="0" />
      </root>
    </mxGraphModel>
  </diagram>
  <diagram id="voMY_Yif4jvKcoHreJax" name="Flowchart">
    <mxGraphModel dx="1434" dy="802" grid="1" gridSize="10" guides="1" tooltips="1" connect="1" arrows="1" fold="1" page="1" pageScale="1" pageWidth="827" pageHeight="1169" math="0" shadow="0">
      <root>
        <mxCell id="0" />
        <mxCell id="1" parent="0" />
      </root>
    </mxGraphModel>
  </diagram>
  <diagram id="p4dPqYaH0B_mqQhsYEV-" name="MVC Service Diagram">
    <mxGraphModel dx="1434" dy="796" grid="1" gridSize="10" guides="1" tooltips="1" connect="1" arrows="1" fold="1" page="1" pageScale="1" pageWidth="827" pageHeight="1169" math="0" shadow="0">
      <root>
        <mxCell id="0" />
        <mxCell id="1" parent="0" />
      </root>
    </mxGraphModel>
  </diagram>
  <diagram id="seXdfGUS_SY7NJTdn9hi" name="Critical Path">
    <mxGraphModel dx="1434" dy="796" grid="1" gridSize="10" guides="1" tooltips="1" connect="1" arrows="1" fold="1" page="1" pageScale="1" pageWidth="827" pageHeight="1169" math="0" shadow="0">
      <root>
        <mxCell id="0" />
        <mxCell id="1" parent="0" />
        <mxCell id="QN2s2EjCb3Ks52i_YXKa-20" value="" style="rounded=0;whiteSpace=wrap;html=1;" vertex="1" parent="1">
          <mxGeometry x="30" y="260" width="780" height="270" as="geometry" />
        </mxCell>
        <mxCell id="QN2s2EjCb3Ks52i_YXKa-1" value="Identify UI&lt;br&gt;Elements" style="ellipse;whiteSpace=wrap;html=1;" vertex="1" parent="1">
          <mxGeometry x="454" y="430" width="120" height="60" as="geometry" />
        </mxCell>
        <mxCell id="QN2s2EjCb3Ks52i_YXKa-2" value="Add UI Elements into Pages" style="ellipse;whiteSpace=wrap;html=1;" vertex="1" parent="1">
          <mxGeometry x="650" y="430" width="120" height="60" as="geometry" />
        </mxCell>
        <mxCell id="QN2s2EjCb3Ks52i_YXKa-3" value="Create Backend Structure" style="ellipse;whiteSpace=wrap;html=1;" vertex="1" parent="1">
          <mxGeometry x="454" y="330" width="120" height="60" as="geometry" />
        </mxCell>
        <mxCell id="QN2s2EjCb3Ks52i_YXKa-4" value="Create Pages" style="ellipse;whiteSpace=wrap;html=1;" vertex="1" parent="1">
          <mxGeometry x="54" y="330" width="120" height="60" as="geometry" />
        </mxCell>
        <mxCell id="QN2s2EjCb3Ks52i_YXKa-5" value="Link Up Pages" style="ellipse;whiteSpace=wrap;html=1;" vertex="1" parent="1">
          <mxGeometry x="244" y="330" width="120" height="60" as="geometry" />
        </mxCell>
        <mxCell id="QN2s2EjCb3Ks52i_YXKa-7" value="Development Critical Path" style="text;html=1;strokeColor=none;fillColor=none;align=center;verticalAlign=middle;whiteSpace=wrap;rounded=0;" vertex="1" parent="1">
          <mxGeometry x="30" y="220" width="160" height="30" as="geometry" />
        </mxCell>
        <mxCell id="QN2s2EjCb3Ks52i_YXKa-13" value="" style="endArrow=classic;html=1;rounded=0;exitX=1;exitY=0.5;exitDx=0;exitDy=0;entryX=0;entryY=0.5;entryDx=0;entryDy=0;fillColor=#d5e8d4;strokeColor=#82b366;" edge="1" parent="1" source="QN2s2EjCb3Ks52i_YXKa-4" target="QN2s2EjCb3Ks52i_YXKa-5">
          <mxGeometry width="50" height="50" relative="1" as="geometry">
            <mxPoint x="114" y="530" as="sourcePoint" />
            <mxPoint x="164" y="480" as="targetPoint" />
          </mxGeometry>
        </mxCell>
        <mxCell id="QN2s2EjCb3Ks52i_YXKa-14" value="" style="endArrow=classic;html=1;rounded=0;exitX=1;exitY=0.5;exitDx=0;exitDy=0;entryX=0;entryY=0.5;entryDx=0;entryDy=0;fillColor=#d5e8d4;strokeColor=#82b366;" edge="1" parent="1" source="QN2s2EjCb3Ks52i_YXKa-5" target="QN2s2EjCb3Ks52i_YXKa-3">
          <mxGeometry width="50" height="50" relative="1" as="geometry">
            <mxPoint x="184" y="470" as="sourcePoint" />
            <mxPoint x="394" y="370" as="targetPoint" />
          </mxGeometry>
        </mxCell>
        <mxCell id="QN2s2EjCb3Ks52i_YXKa-16" value="Create Module" style="ellipse;whiteSpace=wrap;html=1;" vertex="1" parent="1">
          <mxGeometry x="654" y="330" width="120" height="60" as="geometry" />
        </mxCell>
        <mxCell id="QN2s2EjCb3Ks52i_YXKa-17" value="" style="endArrow=classic;html=1;rounded=0;exitX=1;exitY=0.5;exitDx=0;exitDy=0;entryX=0;entryY=0.5;entryDx=0;entryDy=0;" edge="1" parent="1" source="QN2s2EjCb3Ks52i_YXKa-3" target="QN2s2EjCb3Ks52i_YXKa-16">
          <mxGeometry width="50" height="50" relative="1" as="geometry">
            <mxPoint x="674" y="460" as="sourcePoint" />
            <mxPoint x="724" y="410" as="targetPoint" />
          </mxGeometry>
        </mxCell>
        <mxCell id="QN2s2EjCb3Ks52i_YXKa-18" value="" style="endArrow=classic;html=1;rounded=0;exitX=0.5;exitY=1;exitDx=0;exitDy=0;entryX=0.5;entryY=0;entryDx=0;entryDy=0;" edge="1" parent="1" source="QN2s2EjCb3Ks52i_YXKa-16" target="QN2s2EjCb3Ks52i_YXKa-1">
          <mxGeometry width="50" height="50" relative="1" as="geometry">
            <mxPoint x="580" y="470" as="sourcePoint" />
            <mxPoint x="660" y="470" as="targetPoint" />
          </mxGeometry>
        </mxCell>
        <mxCell id="QN2s2EjCb3Ks52i_YXKa-19" value="" style="endArrow=classic;html=1;rounded=0;exitX=1;exitY=0.5;exitDx=0;exitDy=0;entryX=0;entryY=0.5;entryDx=0;entryDy=0;" edge="1" parent="1" source="QN2s2EjCb3Ks52i_YXKa-1" target="QN2s2EjCb3Ks52i_YXKa-2">
          <mxGeometry width="50" height="50" relative="1" as="geometry">
            <mxPoint x="390" y="600" as="sourcePoint" />
            <mxPoint x="460" y="600" as="targetPoint" />
          </mxGeometry>
        </mxCell>
        <mxCell id="QN2s2EjCb3Ks52i_YXKa-21" value="Angular Web Platform" style="text;html=1;strokeColor=none;fillColor=none;align=center;verticalAlign=middle;whiteSpace=wrap;rounded=0;" vertex="1" parent="1">
          <mxGeometry x="30" y="260" width="140" height="30" as="geometry" />
        </mxCell>
        <mxCell id="QN2s2EjCb3Ks52i_YXKa-22" value="" style="rounded=0;whiteSpace=wrap;html=1;" vertex="1" parent="1">
          <mxGeometry x="30" y="540" width="780" height="270" as="geometry" />
        </mxCell>
        <mxCell id="QN2s2EjCb3Ks52i_YXKa-23" value="Identify UI&lt;br&gt;Elements" style="ellipse;whiteSpace=wrap;html=1;" vertex="1" parent="1">
          <mxGeometry x="454" y="700" width="120" height="60" as="geometry" />
        </mxCell>
        <mxCell id="QN2s2EjCb3Ks52i_YXKa-24" value="Add UI Elements into Pages" style="ellipse;whiteSpace=wrap;html=1;" vertex="1" parent="1">
          <mxGeometry x="670" y="690" width="120" height="60" as="geometry" />
        </mxCell>
        <mxCell id="QN2s2EjCb3Ks52i_YXKa-25" value="Create Backend Structure" style="ellipse;whiteSpace=wrap;html=1;" vertex="1" parent="1">
          <mxGeometry x="454" y="600" width="120" height="60" as="geometry" />
        </mxCell>
        <mxCell id="QN2s2EjCb3Ks52i_YXKa-26" value="Create Pages" style="ellipse;whiteSpace=wrap;html=1;" vertex="1" parent="1">
          <mxGeometry x="54" y="600" width="120" height="60" as="geometry" />
        </mxCell>
        <mxCell id="QN2s2EjCb3Ks52i_YXKa-27" value="Link Up Pages" style="ellipse;whiteSpace=wrap;html=1;" vertex="1" parent="1">
          <mxGeometry x="244" y="600" width="120" height="60" as="geometry" />
        </mxCell>
        <mxCell id="QN2s2EjCb3Ks52i_YXKa-28" value="" style="endArrow=classic;html=1;rounded=0;exitX=1;exitY=0.5;exitDx=0;exitDy=0;entryX=0;entryY=0.5;entryDx=0;entryDy=0;fillColor=#d5e8d4;strokeColor=#82b366;" edge="1" source="QN2s2EjCb3Ks52i_YXKa-26" target="QN2s2EjCb3Ks52i_YXKa-27" parent="1">
          <mxGeometry width="50" height="50" relative="1" as="geometry">
            <mxPoint x="114" y="800" as="sourcePoint" />
            <mxPoint x="164" y="750" as="targetPoint" />
          </mxGeometry>
        </mxCell>
        <mxCell id="QN2s2EjCb3Ks52i_YXKa-29" value="" style="endArrow=classic;html=1;rounded=0;exitX=1;exitY=0.5;exitDx=0;exitDy=0;entryX=0;entryY=0.5;entryDx=0;entryDy=0;fillColor=#d5e8d4;strokeColor=#82b366;" edge="1" source="QN2s2EjCb3Ks52i_YXKa-27" target="QN2s2EjCb3Ks52i_YXKa-25" parent="1">
          <mxGeometry width="50" height="50" relative="1" as="geometry">
            <mxPoint x="184" y="740" as="sourcePoint" />
            <mxPoint x="394" y="640" as="targetPoint" />
          </mxGeometry>
        </mxCell>
        <mxCell id="QN2s2EjCb3Ks52i_YXKa-30" value="Create Module" style="ellipse;whiteSpace=wrap;html=1;" vertex="1" parent="1">
          <mxGeometry x="610" y="600" width="126" height="60" as="geometry" />
        </mxCell>
        <mxCell id="QN2s2EjCb3Ks52i_YXKa-31" value="" style="endArrow=classic;html=1;rounded=0;exitX=1;exitY=0.5;exitDx=0;exitDy=0;entryX=0;entryY=0.5;entryDx=0;entryDy=0;fillColor=#d5e8d4;strokeColor=#82b366;" edge="1" source="QN2s2EjCb3Ks52i_YXKa-25" target="QN2s2EjCb3Ks52i_YXKa-30" parent="1">
          <mxGeometry width="50" height="50" relative="1" as="geometry">
            <mxPoint x="674" y="730" as="sourcePoint" />
            <mxPoint x="724" y="680" as="targetPoint" />
          </mxGeometry>
        </mxCell>
        <mxCell id="QN2s2EjCb3Ks52i_YXKa-32" value="" style="endArrow=classic;html=1;rounded=0;exitX=0.5;exitY=1;exitDx=0;exitDy=0;entryX=0.5;entryY=0;entryDx=0;entryDy=0;fillColor=#d5e8d4;strokeColor=#82b366;" edge="1" source="QN2s2EjCb3Ks52i_YXKa-30" target="QN2s2EjCb3Ks52i_YXKa-23" parent="1">
          <mxGeometry width="50" height="50" relative="1" as="geometry">
            <mxPoint x="580" y="750" as="sourcePoint" />
            <mxPoint x="660" y="750" as="targetPoint" />
          </mxGeometry>
        </mxCell>
        <mxCell id="QN2s2EjCb3Ks52i_YXKa-33" value="" style="endArrow=classic;html=1;rounded=0;exitX=1;exitY=0.5;exitDx=0;exitDy=0;entryX=0;entryY=0.5;entryDx=0;entryDy=0;fillColor=#d5e8d4;strokeColor=#82b366;" edge="1" source="QN2s2EjCb3Ks52i_YXKa-23" target="QN2s2EjCb3Ks52i_YXKa-24" parent="1">
          <mxGeometry width="50" height="50" relative="1" as="geometry">
            <mxPoint x="200" y="870" as="sourcePoint" />
            <mxPoint x="270" y="870" as="targetPoint" />
          </mxGeometry>
        </mxCell>
        <mxCell id="QN2s2EjCb3Ks52i_YXKa-34" value="Ionic Mobile App" style="text;html=1;strokeColor=none;fillColor=none;align=center;verticalAlign=middle;whiteSpace=wrap;rounded=0;" vertex="1" parent="1">
          <mxGeometry x="30" y="540" width="110" height="30" as="geometry" />
        </mxCell>
        <mxCell id="QN2s2EjCb3Ks52i_YXKa-35" value="" style="endArrow=classic;html=1;rounded=0;exitX=0.5;exitY=1;exitDx=0;exitDy=0;entryX=1;entryY=0;entryDx=0;entryDy=0;" edge="1" parent="1" source="QN2s2EjCb3Ks52i_YXKa-2" target="QN2s2EjCb3Ks52i_YXKa-26">
          <mxGeometry width="50" height="50" relative="1" as="geometry">
            <mxPoint x="180" y="340" as="sourcePoint" />
            <mxPoint x="304" y="340" as="targetPoint" />
          </mxGeometry>
        </mxCell>
        <mxCell id="QN2s2EjCb3Ks52i_YXKa-36" value="" style="endArrow=classic;html=1;rounded=0;exitX=0.5;exitY=1;exitDx=0;exitDy=0;entryX=0.5;entryY=0;entryDx=0;entryDy=0;fillColor=#d5e8d4;strokeColor=#82b366;" edge="1" parent="1" source="QN2s2EjCb3Ks52i_YXKa-3" target="QN2s2EjCb3Ks52i_YXKa-26">
          <mxGeometry width="50" height="50" relative="1" as="geometry">
            <mxPoint x="920" y="540" as="sourcePoint" />
            <mxPoint x="970" y="490" as="targetPoint" />
          </mxGeometry>
        </mxCell>
        <mxCell id="QN2s2EjCb3Ks52i_YXKa-37" value="" style="endArrow=classic;html=1;rounded=0;entryX=1;entryY=0.5;entryDx=0;entryDy=0;exitX=1;exitY=0.5;exitDx=0;exitDy=0;fillColor=#d5e8d4;strokeColor=#82b366;" edge="1" parent="1" source="QN2s2EjCb3Ks52i_YXKa-24" target="QN2s2EjCb3Ks52i_YXKa-16">
          <mxGeometry width="50" height="50" relative="1" as="geometry">
            <mxPoint x="860" y="770" as="sourcePoint" />
            <mxPoint x="910" y="720" as="targetPoint" />
          </mxGeometry>
        </mxCell>
      </root>
    </mxGraphModel>
  </diagram>
</mxfile>
